<!DOCTYPE svg PUBLIC "-//W3C//DTD SVG 1.1//EN" "http://www.w3.org/Graphics/SVG/1.1/DTD/svg11.dtd">
<!-- Uploaded to: SVG Repo, www.svgrepo.com, Transformed by: SVG Repo Mixer Tools -->
<svg width="800px" height="800px" viewBox="-1.6 -1.6 19.20 19.20" fill="none" xmlns="http://www.w3.org/2000/svg" stroke="#000000" stroke-width="0.00016">
<g id="SVGRepo_bgCarrier" stroke-width="0"/>
<g id="SVGRepo_tracerCarrier" stroke-linecap="round" stroke-linejoin="round" stroke="#000000" stroke-width="3.2"> <path fill-rule="evenodd" clip-rule="evenodd" d="M8.01717 9.33332C8.23022 9.1387 8.44783 8.94232 8.66896 8.74329L8.90839 8.5279C9.07797 8.37529 9.24931 8.22081 9.42128 8.06407L9.49147 8C11.7057 5.9758 14 3.57105 14 0H12C12 0.719834 11.8779 1.38003 11.6565 2H4.34354C4.1221 1.38003 4 0.719834 4 0H2C2 3.57105 4.29434 5.9758 6.50853 8C4.29434 10.0242 2 12.429 2 16H4C4 15.2802 4.1221 14.62 4.34354 14H11.6565C11.8779 14.62 12 15.2802 12 16H14C14 13.2115 12.6011 11.1342 10.9337 9.39389C10.7174 9.59149 10.5068 9.78069 10.3049 9.962L10.0069 10.2299C9.81254 10.4048 9.62552 10.5742 9.44577 10.7388C9.84726 11.1544 10.2154 11.5718 10.5397 12H5.46033C6.14452 11.0966 7.0241 10.2411 8 9.349L8.01717 9.33332ZM5.46033 4H10.5397C9.85548 4.90345 8.97591 5.75894 8 6.651C7.0241 5.75894 6.14452 4.90345 5.46033 4Z" fill="#c63ced"/> </g>
<g id="SVGRepo_iconCarrier"> <path fill-rule="evenodd" clip-rule="evenodd" d="M8.01717 9.33332C8.23022 9.1387 8.44783 8.94232 8.66896 8.74329L8.90839 8.5279C9.07797 8.37529 9.24931 8.22081 9.42128 8.06407L9.49147 8C11.7057 5.9758 14 3.57105 14 0H12C12 0.719834 11.8779 1.38003 11.6565 2H4.34354C4.1221 1.38003 4 0.719834 4 0H2C2 3.57105 4.29434 5.9758 6.50853 8C4.29434 10.0242 2 12.429 2 16H4C4 15.2802 4.1221 14.62 4.34354 14H11.6565C11.8779 14.62 12 15.2802 12 16H14C14 13.2115 12.6011 11.1342 10.9337 9.39389C10.7174 9.59149 10.5068 9.78069 10.3049 9.962L10.0069 10.2299C9.81254 10.4048 9.62552 10.5742 9.44577 10.7388C9.84726 11.1544 10.2154 11.5718 10.5397 12H5.46033C6.14452 11.0966 7.0241 10.2411 8 9.349L8.01717 9.33332ZM5.46033 4H10.5397C9.85548 4.90345 8.97591 5.75894 8 6.651C7.0241 5.75894 6.14452 4.90345 5.46033 4Z" fill="#c63ced"/> </g>
</svg>