<?xml version="1.0" encoding="iso-8859-1"?>
<!-- Uploaded to: SVG Repo, www.svgrepo.com, Generator: SVG Repo Mixer Tools -->
<svg fill="#000000" height="800px" width="800px" version="1.1" id="Layer_1" xmlns="http://www.w3.org/2000/svg" xmlns:xlink="http://www.w3.org/1999/xlink" 
	 viewBox="0 0 512 512" xml:space="preserve">
<g>
	<g>
		<path d="M348.479,395.31H163.521l-9.214,46.069h36.864c0.198,3.882,0.753,7.877,1.772,11.943
			c5.898,23.533,24.824,42.294,56.251,55.763L256,512l6.805-2.916c31.427-13.468,50.353-32.23,56.251-55.763
			c1.019-4.067,1.574-8.061,1.772-11.943h36.864L348.479,395.31z"/>
	</g>
</g>
<g>
	<g>
		<path d="M142.253,372.47l-4.117-11.426c-2.203-6.119-14.204-40.084-24.068-80.469l-25.066,20.052v109.686l53.932-35.954
			L142.253,372.47z"/>
	</g>
</g>
<g>
	<g>
		<path d="M397.933,280.575c-9.864,40.386-21.866,74.352-24.071,80.476l-4.115,11.419l-0.681,1.889l53.932,35.954V300.627
			L397.933,280.575z"/>
	</g>
</g>
<g>
	<g>
		<path d="M256,176.484c-9.526,0-17.276,7.75-17.276,17.276s7.75,17.276,17.276,17.276s17.276-7.75,17.276-17.276
			S265.526,176.484,256,176.484z"/>
	</g>
</g>
<g>
	<g>
		<path d="M265.824,6.793L256,0l-9.824,6.792C241.639,9.928,135.07,84.795,135.07,188.213c0,61.675,34.122,157.091,35.574,161.124
			l4.115,11.42h162.483l4.115-11.42c1.451-4.031,35.573-99.447,35.573-161.122C376.93,84.795,270.361,9.929,265.824,6.793z
			 M256,245.587c-28.577,0-51.827-23.25-51.827-51.827c0-28.578,23.25-51.827,51.827-51.827s51.827,23.25,51.827,51.827
			S284.577,245.587,256,245.587z"/>
	</g>
</g>
</svg>