<!DOCTYPE svg PUBLIC "-//W3C//DTD SVG 1.1//EN" "http://www.w3.org/Graphics/SVG/1.1/DTD/svg11.dtd">
<!-- Uploaded to: SVG Repo, www.svgrepo.com, Transformed by: SVG Repo Mixer Tools -->
<svg fill="#000000" width="256px" height="256px" viewBox="0 0 24 24" id="warning-alt" data-name="Flat Line" xmlns="http://www.w3.org/2000/svg" class="icon flat-line">
<g id="SVGRepo_bgCarrier" stroke-width="0"/>
<g id="SVGRepo_tracerCarrier" stroke-linecap="round" stroke-linejoin="round"/>
<g id="SVGRepo_iconCarrier">
<path id="secondary" d="M10.25,4.19,2.63,18a2,2,0,0,0,1.75,3H19.62a2,2,0,0,0,1.75-3L13.75,4.19A2,2,0,0,0,10.25,4.19Z" style="fill: #ffdc19; stroke-width: 2;"/>
<line id="primary-upstroke" x1="12.05" y1="17" x2="11.95" y2="17" style="fill: none; stroke: #000000; stroke-linecap: round; stroke-linejoin: round; stroke-width: 2.5;"/>
<path id="primary" d="M12,9v4M10.25,4.19,2.63,18a2,2,0,0,0,1.75,3H19.62a2,2,0,0,0,1.75-3L13.75,4.19A2,2,0,0,0,10.25,4.19Z" style="fill: none; stroke: #000000; stroke-linecap: round; stroke-linejoin: round; stroke-width: 2;"/>
</g>
</svg>